<svg viewBox="0 0 91 91" xml:space="preserve" xmlns="http://www.w3.org/2000/svg" enable-background="new 0 0 91 91"><path d="M41.2 48.2c7.4 6.6 14.2 13.7 20.9 21 5.5 6 10.9 14.3 18.6 17.4 1.2.5 2.8-.8 2.7-2-.7-8.3-7.6-15.7-12.7-21.9-4.9-6.1-10.3-11.8-15.9-17.4 12-7.6 21.8-17.7 29.4-29.9 5-8-7.8-15.5-12.5-7.4-7.3 12.6-16.6 23.8-29.3 31.1-3.1 1.8-4 6.6-1.2 9.1z" fill="#ffffff" class="fill-3b6a75" data-darkreader-inline-fill="" style="--darkreader-inline-fill:#181a1b;"></path><path d="M25.8 69.2c5.5 6 10.9 14.3 18.6 17.4 1.2.5 2.8-.8 2.7-2-.7-8.3-7.6-15.7-12.7-21.9-4.9-6.1-10.3-11.8-15.9-17.4 12-7.6 21.8-17.7 29.4-29.9 5-8-7.8-15.5-12.5-7.4-7.3 12.6-16.5 23.8-29.3 31.1-3.1 1.8-4 6.6-1.2 9.1 7.4 6.6 14.3 13.7 20.9 21z" fill="#ffffff" class="fill-3b6a75" data-darkreader-inline-fill="" style="--darkreader-inline-fill:#181a1b;"></path></svg>