<svg viewBox="0 0 30 30" xml:space="preserve" xmlns="http://www.w3.org/2000/svg"><path d="M24.3 11.8c-.1-.2-.4-.3-.6-.3-.3 0-.5.1-.6.3l-3.7 5.1-2.1-2.5c-.1-.2-.4-.3-.6-.3-.2 0-.4.1-.6.3L9 23.2c-.3.3-.2.8.1 1.1.1.1.3.2.5.2s.4-.1.6-.3l6.5-8.1 2.2 2.6c.1.2.4.3.6.3.2 0 .4-.1.6-.3l3.6-5 2.4 3.5c.2.3.7.4 1 .2.3-.2.4-.7.2-1l-3-4.6zM5.5 5.2H23c.4 0 .8-.3.8-.8s-.4-.7-.8-.7H5.5C2.1 3.7.1 5.7.1 9.1v10.3c0 .4.3.8.8.8s.8-.3.8-.8V9.1c-.1-2.6 1.2-3.9 3.8-3.9zm20.6.4H6c-2.1 0-3.8 1.7-3.8 3.8v13.2c0 2.1 1.7 3.8 3.8 3.8h20.1c2.1 0 3.8-1.7 3.8-3.8V9.4c0-2.1-1.7-3.8-3.8-3.8zm2.3 17c0 1.2-1 2.3-2.3 2.3H6c-1.2 0-2.3-1-2.3-2.3V9.4c0-1.2 1-2.3 2.3-2.3h20.1c1.2 0 2.3 1 2.3 2.3v13.2zm-15.7-9.1c0-1.6-1.3-3-3-3-1.6 0-3 1.3-3 3 0 1.6 1.3 3 3 3s3-1.4 3-3zm-4.4 0c0-.8.7-1.5 1.5-1.5s1.5.7 1.5 1.5-.7 1.5-1.5 1.5-1.5-.7-1.5-1.5z" fill="#ffffff" class="fill-262324" data-darkreader-inline-fill="" style="--darkreader-inline-fill:#181a1b;"></path></svg>