<svg viewBox="0 0 512 512" xml:space="preserve" xmlns="http://www.w3.org/2000/svg" enable-background="new 0 0 512 512"><path d="M367.867 357.131h-.059l-.019.02-.099.02h-.04l-.019.02h-.077v.02h-.101v.02H367.282l-.039.02H366.907l-.02-.02H366.75l-.02-.02h-.069l-.039-.02h-.078l-.02-.02h-.058l-.041-.02h-.02l-.019-.02H366.328v-.019h-.04l-.02-.021h-.039l-.02-.019-.038-.02h-.021l-.02-.02h-.039l-.019-.02-.038-.019-.059-.02-.039-.02v-.02l-.038-.02h-.021l-.039-.02-.02-.02-.02-.02h-.02l-.019-.02-.038-.02-.039-.039h-.02l-.041-.039-.038-.019v-.021l-.038-.019v-.02l-.039-.02h-.02l-.02-.038h-.019l-.02-.02-.019-.039h-.02l-.02-.039h-.021l-.02-.039h-.02l-.019-.039-.038-.039-.039-.058-.039-.039-.02-.038-.058-.098h-.021l-.02-.059-.02-.039h-.02l-.02-.039-.019-.059-.02-.019-.019-.038v-.021l-.02-.038-.02-.02v-.039h-.02v-.039l-.02-.02v-.039l-.02-.02v-.039h-.019v-.059h-.021v-.038l-.019-.019v-.039l-.02-.039v-.079h-.02v-.079l-.02-.02v-.136l-.02-.039V354.583l.02-.039v-.078l.02-.019v-.06l.058-.214v-.039l.021-.059.019-.038.039-.077 6.041-14.961c-1.709-2.507-3.302-4.936-4.527-7.034-1.32-2.254-2.291-4.196-2.661-5.537-2.272-8.297-6.159-14.728-11.25-20.149-5.187-5.479-11.657-9.967-19.06-14.261-10.55-6.14-19.118-12.085-26.113-19.585-7.016-7.539-12.416-16.574-16.554-28.814l-.02-.078c-8.92-29.318-11.736-32.797-25.414-49.604-2.565-3.147-5.48-6.723-9.249-11.521-1.767-2.215-2.954-4.139-4.042-5.887-2.041-3.304-3.672-5.927-7.596-7.715-2.818-1.242-4.664-2.875-6.178-4.234-1.555-1.399-2.527-2.254-4.78-.137-1.925 1.807-3.032 2.973-3.789 3.77-.972.99-1.478 1.535-2.235 1.982-.854.523-1.613.719-3.187 1.106-.854.214-2 .505-3.555.933-8.86 3.518-14.747 12.183-20.285 20.363-4.934 7.246-9.618 14.145-16.165 17.467-7.5 3.809-7.967 4.313-10.356 6.897-1.146 1.224-2.681 2.896-5.148 5.227l-.077.097c-4.84 4.372-9.56 7.559-13.991 10.512-8.762 5.888-16.321 10.959-20.73 23.588l-.039.175c-1.341 3.905-8.104 7.13-14.224 10.045-3.943 1.885-7.597 3.634-8.413 4.722-8.587 11.619-18.633 18.516-28.309 25.142-12.318 8.452-23.995 16.477-30.64 33.575-9.016 23.198-11.387 26.191-26.348 42.647h17.76c7.129-10.647 16.456-17.04 26.132-23.685 9.326-6.412 19.041-13.076 27.164-24.055 1.514-2.059 5.692-4.041 10.181-6.197 5.245-2.506 11.055-5.266 11.755-7.286l.077-.194c4.936-14.125 13.096-19.604 22.557-25.958 4.275-2.856 8.821-5.907 13.428-10.084l.019-.02c2.506-2.39 3.885-3.886 4.935-5.013 2.895-3.129 3.458-3.73 11.697-7.908 5.459-2.778 9.811-9.171 14.379-15.912 5.964-8.783 12.297-18.129 22.557-22.131l.349-.117c1.67-.466 2.857-.758 3.73-.971 1.088-.272 1.613-.408 1.846-.564.252-.135.602-.504 1.283-1.204.816-.854 2.02-2.118 3.964-3.944.951-.894 2.467-.855 3.36.098a2.413 2.413 0 0 1-.097 3.381c-1.923 1.807-3.051 2.973-3.808 3.75-.953 1.01-1.478 1.535-2.216 2.001-.854.524-1.612.719-3.206 1.107l-3.555.933c-8.86 3.498-14.747 12.183-20.285 20.343-4.915 7.247-9.599 14.145-16.165 17.487-7.5 3.789-7.967 4.293-10.357 6.877a110.307 110.307 0 0 1-5.129 5.246l-.097.078c-4.818 4.391-9.56 7.559-13.99 10.531-8.742 5.867-16.302 10.938-20.711 23.568l-.058.174c-1.34 3.906-8.104 7.131-14.203 10.046-3.964 1.884-7.618 3.633-8.414 4.722-8.607 11.618-18.653 18.516-28.31 25.161-8.47 5.81-16.651 11.425-23.043 19.837 2.099.078 4.12.176 6.102.35 3.692.351 7.384.895 11.463 1.865 8.802 2.08 15.077 3.284 21.315 3.614 6.256.331 12.61-.194 21.547-1.593l3.887-.603c20.536-3.226 32.349-5.091 54.518-4.585 11.387.271 19.78-.039 28.057-1.146 8.238-1.088 16.458-3.012 27.474-5.965 39.169-10.803 50.128-6.082 63.534-.311 8.51 3.672 18.07 7.811 37.518 8.219 6.996.154 14.049.232 21.141.271l15.389.02 6.414-15.793zm35.576 42.241v-13.796l-5.945.078v13.718h5.945zm25.686-49.818-.039-.058-.019-.039-4.489-11.153-.019-.019v-.02l-.02-.02v-.04l-.02-.02v-.04l-.021-.02v-.039l-.02-.038-.02-.078v-.039l-.02-.021v-.078h-.02v-.099l-.019-.02V337.537l-.02-.078V337.283h.02V337.069h.019v-.117l-6.393-15.834c-11.463-4.839-13.269-10.706-16.282-20.558l-1.146-3.652-1.302 4.177c-2.992 9.773-4.448 14.515-16.398 19.994l-6.431 15.912c.076.447.038.913-.136 1.341L371.637 350h.039l.02-.019h.038l.02-.02h.06l.02-.02h.059l.02-.02h.078l.02-.019h.139l.02-.02h.509v.02h.039l.156.019h.039l.019.02c.116.02.233.058.368.116.156.059.291.117.429.214.174.116.329.272.465.428h.021l.154.233.039.039.039.038.04.116h.02c.077.137.135.292.192.467l.039.176v.038c.098.428.06.894-.115 1.341l-6.547 16.204h.019l.02-.02h.019l.02-.019h.02l.039-.02h.02l.038-.02h.02l.019-.02h.041l.02-.02H368.429l.038-.02h.06l.02-.02h.06l.02-.02h.139l.019-.02H368.906a2.15 2.15 0 0 1 1.028.156c.447.193.817.484 1.068.873h.021l.02.039v.02l.019.039h.02l.038.098h.02c.078.154.135.311.195.485l.039.175v.02c.096.447.057.913-.118 1.359l-7.091 17.526c10.588-4.936 21.217-8.024 31.864-8.899.097-.02.233-.02.349-.02l.099-.019h.137l.058-.021h.195l.059-.019h.312l.06-.02h.193l.061-.019h.312l.058-.021h.312l.077-.019h.372l.077-.02h.391l.058-.02h.39l.194-.02h.272l.387-.02h1.807l1.651.02h.06c10.899.271 21.78 3.012 32.661 8.607l-7.034-17.39c-.292-.642-.311-1.419.04-2.079a2.376 2.376 0 0 1 3.088-1.107l-6.547-16.166c-.233-.621-.233-1.32.097-1.943.483-1.077 1.746-1.562 2.854-1.193zm-1.088-16.399 1.476 3.672.02.021v.039l.02.02v.039l.019.02.021.078.02.039.02.078v.04l.019.019v.078l.02.039v.1l.02.02v.565h-.02v.039l-.02.136 3.108 7.655c4.216-1.011 8.433-1.71 12.649-2.04l.058-.02.292-.02h.135l.06-.02h.235l.058-.02h.254l.058-.02h.254l.059-.02h.195l.116-.02h.311l.019-.02h.061a73.197 73.197 0 0 1 13.813.584c8.22 1.146 16.42 3.73 24.618 7.966l-7.033-17.39a2.412 2.412 0 0 1 .038-2.098 2.423 2.423 0 0 1 3.091-1.108l-6.53-16.165a2.349 2.349 0 0 1 .079-1.943 2.36 2.36 0 0 1 2.894-1.186l-4.546-11.269a2.365 2.365 0 0 1-.136-1.321l-6.411-15.854c-11.445-4.818-13.252-10.687-16.283-20.537l-1.126-3.673-1.321 4.178c-2.992 9.793-4.431 14.514-16.379 19.993l-6.45 15.933c.096.447.058.894-.118 1.34l-4.72 11.658a2.41 2.41 0 0 1 1.65.039c1.224.485 1.807 1.885 1.322 3.108l-1.478 3.653 5.489 13.595zm24.908 15.156h-.428l-5.498.078h-.214v13.736h6.14v-13.814zM288.672 222.173c1.962 5.169 4.041 11.503 6.606 19.935 3.924 11.58 8.976 20.071 15.544 27.105 6.604 7.092 14.824 12.784 25.005 18.71 7.753 4.508 14.593 9.249 20.129 15.116 5.596 5.945 9.87 13.018 12.378 22.15.271.932 1.049 2.486 2.176 4.391.66 1.146 1.457 2.409 2.311 3.73l6.024-14.902a2.328 2.328 0 0 1 1.264-1.282c6.78-3.012 9.792-5.731 11.733-9.463l-.445-.972a14.975 14.975 0 0 1-.582-1.729c-1.322-5.693-3.576-10.104-6.529-13.795-3.012-3.75-6.781-6.82-11.094-9.793-6.316-4.332-11.465-8.529-15.662-13.834-4.235-5.343-7.461-11.716-9.947-20.342l-.02-.078c-5.246-20.363-6.897-22.771-14.961-34.43a558.76 558.76 0 0 1-5.479-8.044c-1.029-1.534-1.769-2.915-2.428-4.158-1.148-2.195-2.061-3.925-4.14-5.032-1.808-.951-2.953-2.156-3.906-3.147l-.737-.758c-.038-.02-.038.155-.486.661a49.382 49.382 0 0 0-2.233 2.604c-.546.66-.876 1.049-1.321 1.398l-.156.136c-.66.466-1.165.622-2.233.933l-2.003.603c-4.934 2.331-8.354 8.258-11.56 13.834-2.295 3.964-4.49 7.792-7.248 10.453zm17.894-59.241c-2.176-4.371-12.397.661-12.417.661a2.458 2.458 0 0 1-3.283-1.204 2.489 2.489 0 0 1 1.206-3.305c.038 0 10.938-5.518 16.709-1.106 5.791-4.411 16.689 1.106 16.729 1.106a2.489 2.489 0 0 1 1.204 3.305 2.458 2.458 0 0 1-3.283 1.204c-.039 0-10.239-5.032-12.436-.661l-.02.059-.039.039v.02l-.02.039-.038.058-.02.039-.019.02-.02.039h-.02l-.02.038v.02l-.04.039v.02l-.039.02v.02l-.038.039-.039.039v.019l-.039.021-.019.019-.02.039h-.019l-.02.038h-.021l-.039.039v.02l-.038.02-.02.02-.019.02-.02.02-.039.02-.02.02-.02.02h-.019l-.04.039-.039.038h-.02l-.039.02-.019.02-.038.02-.059.039-.06.019-.038.039h-.02l-.039.02-.058.02-.02.02h-.038l-.02.02-.021.02h-.02l-.038.02h-.038l-.02.02h-.039l-.02.02H309.45l-.04.02h-.02l-.039.019H309.293l-.019.021h-.059l-.098.019h-.059l-.02.02h-.527l-.019-.02h-.059l-.098-.019h-.059l-.02-.021H308.198l-.038-.019h-.039l-.02-.02h-.06l-.038-.02h-.02l-.039-.02h-.02l-.038-.02h-.019l-.039-.02-.021-.02h-.039v-.02l-.057-.02-.059-.02-.036-.049-.039-.019-.06-.039-.058-.02v-.02l-.038-.02h-.02l-.039-.038-.039-.039h-.019l-.04-.02v-.02l-.039-.02-.02-.02-.039-.02v-.02l-.038-.02-.019-.02-.02-.039h-.02l-.02-.038h-.02l-.04-.039v-.019l-.039-.021-.02-.019-.019-.039h-.02l-.02-.039-.02-.02-.019-.02v-.02l-.039-.039v-.02l-.04-.038-.039-.039v-.02l-.02-.039h-.019l-.02-.058-.039-.039v-.02l-.019-.039-.031-.049zm30.486-32.797a2.46 2.46 0 0 1-1.167 1.225c-1.223.602-2.72.116-3.321-1.127-2.177-4.354-12.396.66-12.415.68a2.512 2.512 0 0 1-3.305-1.225c-.563-1.243-.019-2.721 1.225-3.283.02-.02 10.92-5.519 16.709-1.107 5.791-4.411 16.691 1.088 16.73 1.107 1.242.563 1.767 2.04 1.203 3.283-.563 1.244-2.059 1.788-3.303 1.225-.018-.02-10.045-4.956-12.356-.778zm-75.115 9.287c-2.177-4.371-12.396.66-12.415.68-1.244.564-2.741.02-3.304-1.224s-.039-2.72 1.206-3.284c.039-.019 10.938-5.537 16.728-1.107 5.791-4.43 16.691 1.089 16.711 1.107a2.484 2.484 0 0 1 1.223 3.284 2.51 2.51 0 0 1-3.303 1.224c-.019-.02-10.238-5.051-12.414-.68l-.021.059h-.02l-.019.059-.02.039-.02.019-.02.039v.02l-.038.039-.039.038v.02l-.02.039-.019.02-.02.02-.02.02-.021.039h-.02l-.02.039-.02.019-.019.021-.02.019-.02.039-.02.02-.038.019v.02l-.039.02-.02.02-.019.02-.021.02-.02.02-.019.02-.039.02-.02.02-.02.02-.019.02-.039.02v.02l-.038.019-.02.02-.04.02h-.02l-.039.038-.038.021-.02.019-.039.02-.058.039-.06.02-.058.02v.02l-.039.02h-.02l-.038.02h-.02l-.038.02h-.02l-.04.02-.02.02h-.039l-.02.019H264.838l-.038.021h-.02l-.039.019h-.041l-.039.02h-.038l-.02.02h-.038l-.099.02H264.271l-.038.02H264.036l-.038-.02h-.215l-.097-.02h-.02l-.04-.02h-.02l-.039-.02H263.509l-.02-.019h-.038l-.02-.021h-.06l-.02-.019h-.038l-.02-.02-.039-.02h-.019l-.039-.02h-.02l-.038-.02h-.021l-.038-.02-.02-.02-.039-.02-.058-.02-.058-.039-.039-.02-.021-.019-.039-.021-.058-.038-.039-.02-.019-.02-.039-.019v-.02l-.038-.02-.02-.02-.041-.02v-.02l-.038-.02-.02-.02-.02-.02-.019-.02-.039-.02v-.02l-.038-.02-.02-.02-.02-.019-.02-.02-.021-.039-.02-.019-.02-.021-.02-.019-.019-.039h-.02l-.02-.039-.02-.02-.019-.02-.02-.02-.02-.039-.02-.02-.019-.038-.041-.039v-.02l-.02-.039-.019-.019-.02-.039-.039-.059.017-.059zM123.5 115.019c0-1.321 1.069-2.39 2.369-2.39a2.388 2.388 0 0 1 2.39 2.39v9.481a2.388 2.388 0 0 1-2.39 2.39 2.384 2.384 0 0 1-2.369-2.39v-9.481zm36.876 18.536a2.387 2.387 0 0 1 3.266.874c.66 1.127.272 2.604-.875 3.245l-8.217 4.76a2.402 2.402 0 0 1-3.245-.875 2.396 2.396 0 0 1 .854-3.264l8.217-4.74zm2.391 41.229a2.367 2.367 0 0 1 .875 3.245 2.387 2.387 0 0 1-3.266.874l-8.217-4.741a2.395 2.395 0 0 1-.854-3.264 2.401 2.401 0 0 1 3.245-.875l8.217 4.761zm-34.508 22.675a2.4 2.4 0 0 1-2.39 2.39c-1.3 0-2.369-1.089-2.369-2.39v-9.502c0-1.32 1.069-2.39 2.369-2.39a2.389 2.389 0 0 1 2.39 2.39v9.502zm-36.876-18.556a2.387 2.387 0 0 1-3.266-.874 2.368 2.368 0 0 1 .875-3.245l8.218-4.761a2.403 2.403 0 0 1 3.246.875 2.385 2.385 0 0 1-.875 3.264l-8.198 4.741zm-2.39-41.229a2.363 2.363 0 0 1-.875-3.245 2.387 2.387 0 0 1 3.266-.874l8.198 4.74a2.384 2.384 0 0 1 .875 3.264 2.403 2.403 0 0 1-3.246.875l-8.218-4.76zm52.848-13.854c.662-1.127 2.118-1.535 3.245-.875 1.147.642 1.535 2.1.875 3.245l-2.896 5.013c-.642 1.146-2.099 1.535-3.245.875-1.128-.642-1.516-2.1-.875-3.245l2.896-5.013zm20.09 30.019a2.388 2.388 0 0 1 2.39 2.39 2.388 2.388 0 0 1-2.39 2.39h-5.789a2.39 2.39 0 1 1 0-4.78h5.789zm-15.97 32.429c.66 1.146.272 2.604-.875 3.244a2.369 2.369 0 0 1-3.245-.875l-2.896-5.012c-.641-1.146-.252-2.604.875-3.245 1.146-.661 2.603-.272 3.245.874l2.896 5.014zm-36.042 2.369a2.369 2.369 0 0 1-3.245.875c-1.147-.641-1.536-2.098-.875-3.244l2.895-5.014a2.359 2.359 0 0 1 3.245-.874c1.128.642 1.516 2.099.875 3.245l-2.895 5.012zm-20.09-30.019a2.39 2.39 0 1 1 0-4.78h5.789a2.389 2.389 0 0 1 2.39 2.39 2.389 2.389 0 0 1-2.39 2.39h-5.789zm15.97-32.428c-.66-1.146-.272-2.604.875-3.245 1.126-.66 2.583-.252 3.245.875l2.895 5.013c.641 1.146.253 2.604-.875 3.245a2.36 2.36 0 0 1-3.245-.875l-2.895-5.013zm20.071 5.363c6.821 0 12.98 2.76 17.449 7.229 4.467 4.469 7.247 10.628 7.247 17.447 0 6.82-2.78 12.998-7.228 17.448a24.629 24.629 0 0 1-17.468 7.228c-6.8 0-12.959-2.76-17.428-7.228-4.468-4.469-7.247-10.647-7.247-17.448a24.627 24.627 0 0 1 7.228-17.447 24.613 24.613 0 0 1 17.447-7.229z" fill-rule="evenodd" clip-rule="evenodd" fill="#ffffff" class="fill-000000" data-darkreader-inline-fill="" style="--darkreader-inline-fill:#181a1b;"></path></svg>