<svg viewBox="0 0 200 200" xml:space="preserve" xmlns="http://www.w3.org/2000/svg" enable-background="new 0 0 200 200"><path d="M97.9 141.7c-1 0-1.9.3-2.6.6-.7.3-1.1.6-1.2 1-.2.8-.7 1.4-1.4 1.9-.6.5-1.6.8-2.5.9-2 .2-4-.6-4.8-1.9-.7-1-.9-2.8-.6-4.2.1-.7.5-1.3 1-1.9.3-.2.6-.5.9-.8.4-.2.7-.5 1.1-.6 1.6-.7 3.7-.9 5.4-.1 1.7.7 3.2 2.3 3.7 4.6.1.4.5.5 1 .5.4 0 .8-.2.9-.5.1-1.4 0-2.9-.5-4.3l-.5-1.1c-.2-.3-.4-.6-.7-1-.4-.7-1.1-1.2-1.7-1.7-2.6-2-6-2.5-9.2-1.9-.8.1-1.6.5-2.4.8-.8.4-1.5.9-2.2 1.4-1.3 1.2-2.6 2.7-3.1 4.4l-.4 1.3c-.1.4-.1.9-.2 1.3l-.1 1.3.1 1.3c0 .4.1.9.1 1.3.1.4.3.9.4 1.3.2.9.7 1.7 1.2 2.5 1.3 1.9 3.2 3.4 5.2 4.1 2 .8 4.1 1.1 6.2.8 2.1-.2 4.2-.9 6-2.3 1.8-1.3 3.3-3.3 3.9-5.5.4-1 0-2-.5-2.7-.7-.4-1.5-.8-2.5-.8z" fill="#ffffff" class="fill-000000" data-darkreader-inline-fill="" style="--darkreader-inline-fill:#181a1b;"></path><path d="M139.6 59.6c-1.2-1.3-3-2.1-4.8-2.2h-16.9c-.4 0-.7.1-1 .1l.9-8.4c.3-2.5-1.2-5-3.5-6-.6-.3-1.2-.4-1.8-.5-.3 0-.6 0-1-.1h-2.7l-8.3-.1c0-.4 0-.8-.1-1.3-.2-2.5-.8-4.8-1.3-7.1-.1-.3-.5-.5-.9-.5-.1-2-1-3.6-2.6-3.7-2.2-.2-4.4-.5-6.8-.6-1.2-.1-2.4-.1-3.7 0-1 0-3.7.4-5.4 1.6-.4.4-.7.9-1.1 1.3-.2.5-.5 1-.7 1.6l-.3.8c-.1.2-.1.4-.1.5-.1.3-.2.7-.2 1-.3 1.3-.4 2.6-.6 3.9 0 .5-.1 1-.1 1.5v.6h-8.8c-.7 0-1.4 0-2 .2-2.7.6-4.8 3-5.1 5.7-.1.6 0 1.4 0 2l.1 1L61 53l.9 8.3 4.2 40.3.5 5c.2 1.7.3 3.2.4 4.9l.1 1.4c.1.7.2 1.5.4 2.3.1.4.2.7.4 1.1 0 .1-.1.1-.1.2-.2.5-.4 1.1-.5 1.5l-.4 1.2-.3.8-1.2 3c-.2.4-.5 1.2-.7 1.8l-.6 1.8c-1.4 4.6-2.4 9.2-3.3 13.8-1.1 5.7-2 11.3-2.3 17.3 0 1.5 0 3 .1 4.7.1.8.2 1.7.4 2.6.1.4.2 1 .6 1.7.1.3.3.6.5.9l.6.8c.8 1.1 2.1 1.8 3.5 2.1.3.1.7.1 1 .2.3 0 .5.1.7.1h1.3c1.6 0 3.1-.2 4.5-.3l2-.2c.7-.1 1-.1 1.8-.1h29.9c5.4 0 9.7-1.6 9.7-3.5.4 0 .9-.5 1-1.8 1-9.2 1.4-18.5.4-27.9-.5-4.7-1.4-9.4-2.9-13.9l-1-3.3c-.2-.6-.4-1.1-.6-1.8-.2-.4-.3-.7-.5-1.1-.3-.4-.5-.9-.9-1.2l-.3-.3c0-.2.1-.4.1-.6.6-4.6 1.1-9.2 1.6-13.7 3.7.3 7.4.3 11.3-.6 4-.9 8.1-3.1 10.9-6.7 2.8-3.5 4.2-7.6 5.1-11.6.9-4 1.3-7.9 1.6-11.7l.5-5.9c.1-1.9-.6-3.7-1.8-5zm-55.7-19c.1-1.1.2-2.1.5-3.2l.2-1.1.9-.1c.9-.1 1.9 0 2.9 0 2.1.1 4.2.3 6.5.6.8.1 1.6-.2 2.2-.8-.1 1.7-.3 3.4-.5 5-.1.4-.2.9-.3 1.3l-12.5-.2v-.4c0-.3 0-.7.1-1.1zm-16 8.5 12.7-.1c.3.1.6.1.9.2.6.1 1.1.1 1.7.1h1.1c1.2 0 2.4 0 3.7-.1 1.6-.1 3.2-.2 4.9-.4l7.6-.1 8.4-.1H111.7c.2.1.4.3.4.6L111 65.3l-.9 16.4c-.1 2.9-.3 5.9-.4 8.8-1.1-1.1-2.3-2.1-3.8-2.8-1.2-.6-2.6-.9-4-1-1.4-.1-2.8 0-4.1.3-2.6.5-5 1.5-7.1 2.6-2.1 1-4.1 2.2-6 3.1-2.3 1.2-4.5 2-6.4 2-.9 0-1.8-.2-2.7-.5-.9-.4-1.7-.9-2.6-1.6l-.6-.3-3.3-31.8-.9-8.3-.3-3.1zm44.5 88.5c1.6 8.9 2 18.1 1.9 27.2v.5c-1.5-1.3-4.9-2.2-8.9-2.2H75.8c-.6 0-1.7 0-2.4.1l-2.2.2c-1.4.1-2.7.3-3.9.3h-1.1c0 .1 0-.1-.1-.3-.1-.4-.2-1-.2-1.6-.1-1.2-.1-2.5-.1-3.8.2-5.3 1.1-10.8 2.1-16.2.9-4.4 1.9-8.9 3.1-13.1.2-.5.3-1 .5-1.5s.3-.8.5-1.4c.5-1.1.9-2.2 1.3-3.4l.3-.9.1-.4c.1-.2 0-.1 0-.1.1-.1-.4.1 1.3-.3.7-.1 1.3-.3 1.9-.5 3.4.8 7.1 1 10.5 1.1 3.5 0 7-.2 10.4-.4 3.2-.2 5.9-.8 7.9-1.5h.5c.1 0 .3.1.4.1.1 0 .1.1.1.2 0 0 .1.3.2.4.2.4.4.9.6 1.4l1.2 3.2c1.8 4.2 2.9 8.5 3.7 12.9zm-4.4-23.5c-.5-.1-1-.2-1.5-.2H102.7c-1.4-.1-2.9-.2-4.6-.1-.9 0-1.8-.1-2.8-.2-2.2-.2-4.6-.5-6.9-.7-2.4-.2-4.8-.3-7.4-.2-1 0-2.1.2-3.2.4-.7-.1-1.4-.3-2.1-.4l-1.2-.2-.1-1.4c-.1-1.7-.3-3.5-.4-5.2l-.5-5c1.6.6 3.4.9 5.1.9 1.8-.1 3.5-.4 5.1-1 1.6-.5 3-1.2 4.3-1.9 4.3-2.2 7.9-5 11.4-6.5 1.8-.7 3.5-1.1 5.3-.9 1.6.2 3.3.9 4.9 2-.3 6.9-.7 13.7-.9 20.6-.3.1-.5 0-.7 0zm25.8-44.2c-.7 7.4-1 15-4.3 20.5-1.7 2.7-4.3 4.8-7.5 6.1-3 1.2-6.3 2-9.8 2.5.7-5.6 1.3-11.2 2-16.9l1.8-16.3.2-1.6c.5.2 1.1.4 1.7.4h16.4l-.5 5.3z" fill="#ffffff" class="fill-000000" data-darkreader-inline-fill="" style="--darkreader-inline-fill:#181a1b;"></path></svg>