<svg viewBox="0 0 88 88" xmlns="http://www.w3.org/2000/svg"><g data-name="G. Design"><path d="m9 66.586 2.086-2.086L23.5 76.914 21.414 79zM19.414 70 69.5 19.914l5.5 5.5L24.914 75.5zM12.5 63.086 62.586 13l5.5 5.5L18 68.586zM82.429 17.985A8.778 8.778 0 1 0 70.015 5.571L67.5 8.086 79.914 20.5ZM64 11.586 66.086 9.5 78.5 21.914 76.414 24zM3.045 83.702a1 1 0 0 0 1.253 1.253l15.423-4.82L7.865 68.279ZM9.793 22.793a1 1 0 0 1 1.414 1.414l-4.71 4.71 3.586 3.586 4.71-4.71a1 1 0 0 1 1.414 1.414l-4.71 4.71 3.586 3.586 4.71-4.71a1 1 0 0 1 1.414 1.414l-4.71 4.71 3.586 3.586 4.71-4.71a1 1 0 0 1 1.414 1.414l-4.71 4.71 3.673 3.673 17-17L17.59 6 1.29 22.29a1.008 1.008 0 0 0 0 1.42l3.793 3.793ZM47.59 25.17 23.71 1.29a1.008 1.008 0 0 0-1.42 0L19 4.59l24.59 24.58ZM86.71 64.29 62.83 40.41l-4 4L83.41 69l3.3-3.29a1.008 1.008 0 0 0 0-1.42ZM40.41 62.83l3.673 3.673 4.71-4.71a1 1 0 0 1 1.414 1.414l-4.71 4.71 3.586 3.586 4.71-4.71a1 1 0 1 1 1.414 1.414l-4.71 4.71 3.586 3.586 4.71-4.71a1 1 0 1 1 1.414 1.414l-4.71 4.71 3.586 3.586 4.71-4.71a1 1 0 1 1 1.414 1.414l-4.71 4.71 3.793 3.793a1.014 1.014 0 0 0 1.42 0L82 70.41 57.41 45.83Z" fill="#ffffff" class="fill-000000" data-darkreader-inline-fill="" style="--darkreader-inline-fill:#181a1b;"></path></g></svg>