<svg viewBox="0 0 512 512" xml:space="preserve" xmlns="http://www.w3.org/2000/svg" enable-background="new 0 0 512 512"><path d="M97.82 332.897h-7.001v7.025h7.001v-7.025zm169.449-5.044h-17.105v17.116h17.105v-17.116zm163.908 5.044h-7.001v7.025h7.001v-7.025zM249.139 34.101V58.36a44.172 44.172 0 0 1 5.341-.659l.849-.048h.186l.095-.023H256.165l.06-.023h2.312l.05.023h.541l.095.023H259.508c2.074.094 4.124.33 6.104.707V34.101c-.007-10.963-16.473-10.634-16.473 0zm18.719 30.717h-.035l-.024-.021h-.07l-.024-.024h-.035l-.035-.023h-.024l-.035-.024a39.868 39.868 0 0 0-8.616-1.297h-.249l-.081-.023h-2.439l-.084.023h-.507l-.084.024h-.07l-.505.023h-.165l-.414.024v.023h-.07c-9.584.754-18.211 4.949-24.637 11.363-7.096 7.096-11.479 16.902-11.479 27.725 0 10.821 4.383 20.629 11.479 27.725 7.096 7.097 16.905 11.481 27.725 11.481s20.629-4.385 27.726-11.481c7.096-7.096 11.479-16.903 11.479-27.725 0-10.822-4.384-20.629-11.479-27.725-4.718-4.715-10.635-8.251-17.248-10.068zm1.355 25.958a16.707 16.707 0 0 0-11.834-4.88 16.704 16.704 0 0 0-11.833 4.88c-3.019 3.017-4.882 7.214-4.882 11.835s1.863 8.794 4.882 11.834a16.707 16.707 0 0 0 11.833 4.881c4.622 0 8.806-1.863 11.834-4.881 3.019-3.04 4.882-7.213 4.882-11.834s-1.864-8.818-4.882-11.835zm151.758 375.489a2.906 2.906 0 0 1 2.899 2.899c0 1.604-1.31 2.9-2.899 2.9h-25.296a2.9 2.9 0 1 1 0-5.799h25.296zm-77.577 13.932a2.897 2.897 0 0 1 2.899 2.899 2.912 2.912 0 0 1-2.899 2.901H228.735a2.912 2.912 0 0 1-2.899-2.901 2.896 2.896 0 0 1 2.899-2.899h114.659zm-259.672 5.801c-1.593 0-2.899-1.32-2.899-2.901a2.903 2.903 0 0 1 2.899-2.899h50.604a2.906 2.906 0 0 1 2.902 2.899 2.922 2.922 0 0 1-2.902 2.901H83.722zm95.234 0c-1.593 0-2.889-1.32-2.889-2.901a2.894 2.894 0 0 1 2.889-2.899h23.078a2.894 2.894 0 0 1 2.889 2.899c0 1.581-1.295 2.901-2.889 2.901h-23.078zM350.35 369.039c7.686-8.559 16.961-20.699 21.843-29.729h-29.669a9390.26 9390.26 0 0 0 7.826 29.729zm-40.209-46.373c-5.836 3.725-14.347 8.18-19.804 10.373l-1.2.472h23.903l-2.899-10.845zm-108.542 10.845h24.802l-.719-.283c-5.882-2.31-14.758-7.474-20.899-11.599l-3.184 11.882zm-29.304 5.8H143.32c4.928 9.123 13.722 20.84 21.159 29.139l7.816-29.139zm-9.585 35.74-.01-.023c-8.911-9.384-19.945-24.07-25.897-35.717h-31.557c-1.59 0-2.889-1.297-2.889-2.9s1.299-2.899 2.889-2.899h28.764a120.173 120.173 0 0 1-2.408-5.658c-6.198-15.56-9.616-32.534-9.616-50.263 0-1.58 1.295-2.9 2.899-2.9 1.59 0 2.898 1.32 2.898 2.9 0 17.021 3.253 33.265 9.185 48.117a127.734 127.734 0 0 0 3.404 7.804h33.477l9.62-35.929c-3.264-6.39-9.3-18.719-10.869-25.25a88.278 88.278 0 0 1-2.463-20.652 2.885 2.885 0 0 1 2.829-2.876h-4.043v-8.251h8.229v8.251h-4.032c1.555.022 2.818 1.319 2.818 2.876 0 6.672.79 13.132 2.274 19.285 1.074 4.455 4.527 12.094 7.51 18.2l41.128-153.478a45.012 45.012 0 0 0 24.658 11.553l-45.146 168.471c5.728 4.008 15.396 9.761 21.429 12.142a81.79 81.79 0 0 0 13.627 4.03v7.428h-41.374l-12.803 47.787c10.065 5.8 25.002 12.802 35.601 15.749 11.08 3.088 22.798 4.738 34.913 4.738 11.978 0 23.552-1.603 34.491-4.621 10.68-2.923 25.356-9.712 35.271-15.418l-12.919-48.235h-39.232v-7.686a80.842 80.842 0 0 0 12.827-3.938c5.646-2.287 14.992-7.238 20.38-10.869L263.131 147.24c9.5-1.203 18.081-5.375 24.777-11.553 14.761 50.759 28.385 102.766 41.872 154.656 2.993-6.483 6.282-14.382 7.377-18.789a82.137 82.137 0 0 0 2.429-19.875c0-1.557 1.264-2.854 2.828-2.876h-4.053v-8.251h8.227v8.251h-4.029c1.564.022 2.828 1.319 2.828 2.876 0 7.309-.919 14.451-2.617 21.266-1.58 6.365-7.227 19.072-10.75 26.027l8.994 34.538h34.123a119.502 119.502 0 0 0 3.232-7.356c6.047-14.994 9.381-31.379 9.381-48.564 0-1.58 1.299-2.9 2.889-2.9a2.914 2.914 0 0 1 2.902 2.9c0 17.916-3.479 35.032-9.799 50.711a112.437 112.437 0 0 1-2.238 5.21h34.846c1.604 0 2.898 1.296 2.898 2.899s-1.295 2.9-2.898 2.9h-37.626c-5.896 11.505-17.54 26.711-26.62 36.354l2.879 10.773c.943 3.514.375 7.096-1.285 10.066l-.06.095c-.919 1.58-2.158 2.994-3.653 4.079l9.43 35.599a2.883 2.883 0 0 1-2.063 3.513c-1.545.401-3.124-.519-3.524-2.052l-9.194-34.679a13.453 13.453 0 0 1-9.301-1.557 13.37 13.37 0 0 1-6.236-8.086l-.024-.095c-10.279 5.753-24.602 12.283-35.292 15.207a135.996 135.996 0 0 1-72.47-.119c-10.645-2.946-25.216-9.666-35.622-15.536l-.144.519v.023c-2.074 7.662-8.227 10.443-14.073 9.736l-9.03 34.114c-.4 1.532-1.979 2.452-3.538 2.052-1.53-.401-2.45-1.98-2.05-3.537l9.111-34.42c-4.843-2.688-8.146-8.04-6.307-14.924l3.052-11.384zm-16.147 97.013a2.9 2.9 0 1 1 0-5.799h219.052a2.906 2.906 0 0 1 2.899 2.899c0 1.604-1.31 2.9-2.899 2.9H146.563zM257.379 80.097c6.201 0 11.834 2.522 15.912 6.601 4.078 4.079 6.602 9.713 6.602 15.914 0 6.2-2.523 11.834-6.602 15.914-4.078 4.078-9.711 6.6-15.912 6.6s-11.833-2.521-15.912-6.6c-4.082-4.08-6.602-9.714-6.602-15.914 0-6.201 2.52-11.835 6.602-15.914 4.078-4.079 9.711-6.601 15.912-6.601z" fill-rule="evenodd" clip-rule="evenodd" fill="#ffffff" class="fill-000000" data-darkreader-inline-fill="" style="--darkreader-inline-fill:#181a1b;"></path></svg>