<svg viewBox="0 0 60 60" xml:space="preserve" xmlns="http://www.w3.org/2000/svg" enable-background="new 0 0 60 60"><path d="M12 0H0v60h60V0H12zm24.202 12c.272 1.9-.28 5.294-2.215 7.844-1.699 2.239-4.039 3.313-6.938 3.157-1.639-.08-2.731-.611-3.341-1.623-1.454-2.412.014-7.144.946-9.378h11.548zM21.994 22.408c.966 1.604 2.634 2.476 4.957 2.591.206.01.409.015.608.015 4.125 0 6.629-2.127 8.021-3.961 2.105-2.773 2.902-6.495 2.625-9.053h6.489c-2.468 2.77-4.361 5.609-6.058 8.166C35.232 25.295 32.774 29 28 29c-8.217 0-10.458 15.058-10.904 19H12v-7.51c1.879-1.497 9.414-8.041 7.982-15.674-.639-3.409-1.976-4.435-2.861-5.113-.706-.542-1.058-.841 2.488-7.702h2.897c-.908 2.417-2.358 7.343-.512 10.407zm22.949 17.261c-1.097-3.123 1.326-6.01 3.057-7.587V48h-3.518c.096-.155.189-.316.276-.483.655-1.265 1.549-3.966.185-7.848zM48 12v5.088c-1.808.343-3.794 1.844-4.634 6.501-1.04 5.761-5.267 10.258-10.768 11.457-3.162.689-5.256.014-5.278.007a1 1 0 0 0-.646 1.893c.07.024 1.229.412 3.123.412.917 0 2.006-.091 3.227-.356 6.294-1.373 11.126-6.497 12.311-13.057.486-2.697 1.397-4.291 2.665-4.774v10.312c-1.608 1.187-6.811 5.53-4.943 10.848 1.104 3.143.441 5.247-.052 6.223-.458.905-.996 1.339-1.213 1.446H40c-.971 0-1.621-.22-1.935-.653-.444-.616-.236-1.672-.12-2.021l.054-.291c.056-1.644-.522-3.002-1.671-3.929-2.936-2.368-8.656-1.271-9.475-1.097-3.491.325-4.492 5.71-4.762 7.991h-2.987c.638-5.596 3.132-17 8.895-17 5.848 0 8.839-4.508 12.302-9.728 1.934-2.915 4.125-6.206 7.125-9.272H48zM36.143 48H24.107c.32-2.399 1.254-5.88 2.964-6.003l.159-.024c1.16-.264 5.897-.917 7.866.709.614.508.912 1.215.906 2.157-.142.495-.452 1.9.141 3.161zM15.904 21.289c.72.552 1.614 1.238 2.113 3.896 1.001 5.337-3.504 10.338-6.018 12.657V12h5.359c-3.335 6.521-3.44 7.765-1.454 9.289zM2 2h8v46H9v-1a1 1 0 1 0-2 0v1H6v-7a1 1 0 1 0-2 0v7H2V2zm0 56v-8h46v2h-5a1 1 0 1 0 0 2h5v1h-3a1 1 0 1 0 0 2h3v1H2zm56 0h-8V12h2v5a1 1 0 1 0 2 0v-5h1v3a1 1 0 1 0 2 0v-3h1v46zM48 10H12V9h2a1 1 0 1 0 0-2h-2V6h3a1 1 0 1 0 0-2h-3V2h46v8H48z" fill="#ffffff" class="fill-000000" data-darkreader-inline-fill="" style="--darkreader-inline-fill:#181a1b;"></path><circle cx="55" cy="4" r="1" fill="#ffffff" class="fill-000000" data-darkreader-inline-fill="" style="--darkreader-inline-fill:#e8e6e3;"></circle><circle cx="51" cy="4" r="1" fill="#ffffff" class="fill-000000" data-darkreader-inline-fill="" style="--darkreader-inline-fill:#e8e6e3;"></circle><circle cx="55" cy="8" r="1" fill="#ffffff" class="fill-000000" data-darkreader-inline-fill="" style="--darkreader-inline-fill:#e8e6e3;"></circle><circle cx="51" cy="8" r="1" fill="#ffffff" class="fill-000000" data-darkreader-inline-fill="" style="--darkreader-inline-fill:#e8e6e3;"></circle><circle cx="56" cy="55" r="1" fill="#ffffff" class="fill-000000" data-darkreader-inline-fill="" style="--darkreader-inline-fill:#e8e6e3;"></circle><circle cx="56" cy="51" r="1" fill="#ffffff" class="fill-000000" data-darkreader-inline-fill="" style="--darkreader-inline-fill:#e8e6e3;"></circle><circle cx="52" cy="55" r="1" fill="#ffffff" class="fill-000000" data-darkreader-inline-fill="" style="--darkreader-inline-fill:#e8e6e3;"></circle><circle cx="52" cy="51" r="1" fill="#ffffff" class="fill-000000" data-darkreader-inline-fill="" style="--darkreader-inline-fill:#e8e6e3;"></circle><circle cx="5" cy="56" r="1" fill="#ffffff" class="fill-000000" data-darkreader-inline-fill="" style="--darkreader-inline-fill:#e8e6e3;"></circle><circle cx="9" cy="56" r="1" fill="#ffffff" class="fill-000000" data-darkreader-inline-fill="" style="--darkreader-inline-fill:#e8e6e3;"></circle><circle cx="5" cy="52" r="1" fill="#ffffff" class="fill-000000" data-darkreader-inline-fill="" style="--darkreader-inline-fill:#e8e6e3;"></circle><circle cx="9" cy="52" r="1" fill="#ffffff" class="fill-000000" data-darkreader-inline-fill="" style="--darkreader-inline-fill:#e8e6e3;"></circle><circle cx="4" cy="5" r="1" fill="#ffffff" class="fill-000000" data-darkreader-inline-fill="" style="--darkreader-inline-fill:#e8e6e3;"></circle><circle cx="4" cy="9" r="1" fill="#ffffff" class="fill-000000" data-darkreader-inline-fill="" style="--darkreader-inline-fill:#e8e6e3;"></circle><circle cx="8" cy="5" r="1" fill="#ffffff" class="fill-000000" data-darkreader-inline-fill="" style="--darkreader-inline-fill:#e8e6e3;"></circle><circle cx="8" cy="9" r="1" fill="#ffffff" class="fill-000000" data-darkreader-inline-fill="" style="--darkreader-inline-fill:#e8e6e3;"></circle></svg>