<svg viewBox="0 0 64 64" xmlns="http://www.w3.org/2000/svg"><path d="M19.45 19.45A26.164 26.164 0 0 0 11 18.01 28.112 28.112 0 0 1 10 10a28.112 28.112 0 0 1 8.01 1 26.196 26.196 0 0 0 1.44 8.45ZM54 10a28.113 28.113 0 0 1-1 8.01 26.164 26.164 0 0 0-8.45 1.44A26.196 26.196 0 0 0 45.99 11 28.113 28.113 0 0 1 54 10ZM54 54a28.113 28.113 0 0 1-8.01-1 26.196 26.196 0 0 0-1.44-8.45A26.164 26.164 0 0 0 53 45.99 28.113 28.113 0 0 1 54 54ZM19.45 44.55A26.196 26.196 0 0 0 18.01 53 28.112 28.112 0 0 1 10 54a28.112 28.112 0 0 1 1-8.01 26.164 26.164 0 0 0 8.45-1.44ZM19.45 19.45C22.82 20.59 25.48 22 32 22s9.18-1.41 12.55-2.55M19.45 44.55C22.82 43.41 25.48 42 32 42s9.18 1.41 12.55 2.55M14 32h36M19.45 19.45C20.59 22.82 22 25.48 22 32s-1.41 9.18-2.55 12.55M44.55 44.55C43.41 41.18 42 38.52 42 32s1.41-9.18 2.55-12.55M32 14v36" fill="none" stroke="#ffffff" stroke-linecap="round" stroke-linejoin="round" stroke-width="4px" class="stroke-000000" data-darkreader-inline-stroke="" style="--darkreader-inline-stroke:#e8e6e3;"></path><path d="M54 54c-11 0-11-4-22-4s-11 4-22 4c0-11 4-11 4-22s-4-11-4-22c11 0 11 4 22 4s11-4 22-4c0 11-4 11-4 22s4 11 4 22Z" fill="none" stroke="#ffffff" stroke-linecap="round" stroke-linejoin="round" stroke-width="4px" class="stroke-000000" data-darkreader-inline-stroke="" style="--darkreader-inline-stroke:#e8e6e3;"></path></svg>