<svg data-name="Layer 1" viewBox="0 0 100 100" xmlns="http://www.w3.org/2000/svg"><path d="M34.65 50.86a1 1 0 0 0-1.252.657l-.595 1.91a1 1 0 1 0 1.91.594l.594-1.91a1 1 0 0 0-.657-1.252ZM41.787 27.945a1 1 0 0 0-1.252.658l-.595 1.91a1 1 0 1 0 1.91.594l.594-1.91a1 1 0 0 0-.657-1.252ZM44.166 20.307a1 1 0 0 0-1.252.658l-.595 1.909a1 1 0 1 0 1.91.595l.594-1.91a1 1 0 0 0-.657-1.252ZM37.029 43.221a1 1 0 0 0-1.252.658l-.595 1.91a1 1 0 1 0 1.91.594l.594-1.91a1 1 0 0 0-.657-1.252ZM39.408 35.583a1 1 0 0 0-1.252.658l-.595 1.91a1 1 0 0 0 1.91.594l.594-1.91a1 1 0 0 0-.657-1.252ZM31.082 62.317a1 1 0 0 0 1.252-.658l.594-1.91a1 1 0 0 0-1.91-.594l-.594 1.91a1 1 0 0 0 .658 1.252ZM59.973 36.822l.593 1.91a1 1 0 1 0 1.91-.592l-.593-1.91a1 1 0 1 0-1.91.592ZM57.603 29.181l.593 1.91a1 1 0 1 0 1.91-.592l-.592-1.91a1 1 0 1 0-1.91.592ZM55.234 21.54l.592 1.91a1 1 0 1 0 1.91-.592l-.592-1.91a1 1 0 1 0-1.91.592ZM62.343 44.463l.592 1.91a1 1 0 1 0 1.91-.592l-.592-1.91a1 1 0 1 0-1.91.592ZM64.713 52.104l.592 1.91a1 1 0 1 0 1.91-.592l-.592-1.91a1 1 0 1 0-1.91.592ZM67.083 59.745l.592 1.91a1 1 0 0 0 1.91-.592l-.592-1.91a1 1 0 1 0-1.91.592ZM25.78 67.434l-1.618.933a1 1 0 0 0 1 1.732l1.617-.933a1 1 0 0 0-.999-1.732ZM12.838 74.9l-1.618.934a1 1 0 1 0 1 1.732l1.617-.933a1 1 0 1 0-1-1.732ZM19.309 71.167l-1.618.933a1 1 0 0 0 1 1.733l1.617-.934a1 1 0 1 0-1-1.732ZM86.163 76.633l1.618.933a1 1 0 0 0 .999-1.732l-1.618-.933a1 1 0 1 0-1 1.732ZM73.22 69.166l1.618.933a1 1 0 0 0 1-1.732l-1.619-.933a1 1 0 1 0-1 1.732ZM79.691 72.9l1.618.933a1 1 0 0 0 1-1.732l-1.618-.934a1 1 0 0 0-1 1.733ZM47 65h-2a1 1 0 0 0 0 2h2a1 1 0 1 0 0-2ZM55 65h-2a1 1 0 0 0 0 2h2a1 1 0 1 0 0-2ZM32 65h-2a1 1 0 0 0 0 2h2a1 1 0 0 0 0-2ZM68 65a1 1 0 0 0 0 2h2a1 1 0 0 0 0-2h-2Z" fill="#ffffff" class="fill-000000" data-darkreader-inline-fill="" style="--darkreader-inline-fill:#181a1b;"></path><path d="m94.86 79.49-44-74a1 1 0 0 0-1.72 0l-44 74a.966.966 0 0 0-.11.76.998.998 0 0 0 .47.61l24 14a.848.848 0 0 0 .26.11c.01 0 .01 0 .02.01.01 0 .03-.01.04 0A1.1 1.1 0 0 0 30 95h40a1.1 1.1 0 0 0 .18-.02c.01-.01.03 0 .04 0 .01-.01.01-.01.02-.01a.848.848 0 0 0 .26-.11l24-14a.998.998 0 0 0 .47-.61.966.966 0 0 0-.11-.76ZM29.33 92.45 7.37 79.64l40.25-67.68Zm1.92.55 5.91-26H39a1 1 0 1 0 0-2h-1.386L50 10.51 62.386 65H61a1 1 0 0 0 0 2h1.84l5.91 26Zm39.42-.55L52.38 11.96l40.25 67.68Z" fill="#ffffff" class="fill-000000" data-darkreader-inline-fill="" style="--darkreader-inline-fill:#181a1b;"></path></svg>