<svg data-name="Layer 1" viewBox="0 0 100 100" xmlns="http://www.w3.org/2000/svg"><path d="M5.076 94.38A1.003 1.003 0 0 0 6 95h64a1.006 1.006 0 0 0 .707-.293l24-24A1.01 1.01 0 0 0 95 70V6a1 1 0 0 0-1-1H30l-.01.002a.996.996 0 0 0-.697.29l-24 24A1.014 1.014 0 0 0 5 30v64a1 1 0 0 0 .076.38Zm65.854-2.725A.995.995 0 0 0 69 92v1H8.414l22-22h61.172ZM91.7 7A1 1 0 0 0 93 8.3V69H71v-1a1 1 0 0 0-2 0v1H31V31h1a1 1 0 0 0 0-2h-1V7ZM29 69.586l-22 22V31h1a.995.995 0 0 0 .345-1.93L29 8.414Z" fill="#ffffff" class="fill-000000" data-darkreader-inline-fill="" style="--darkreader-inline-fill:#181a1b;"></path><path d="M70 39a1 1 0 0 0 1-1v-2a1 1 0 0 0-2 0v2a1 1 0 0 0 1 1ZM70 47a1 1 0 0 0 1-1v-2a1 1 0 0 0-2 0v2a1 1 0 0 0 1 1ZM70 83a1 1 0 0 0-1 1v2a1 1 0 0 0 2 0v-2a1 1 0 0 0-1-1ZM70 55a1 1 0 0 0 1-1v-2a1 1 0 0 0-2 0v2a1 1 0 0 0 1 1ZM69 76v2a1 1 0 0 0 2 0v-2a1 1 0 0 0-2 0ZM70 63a1 1 0 0 0 1-1v-2a1 1 0 0 0-2 0v2a1 1 0 0 0 1 1ZM46 31h2a1 1 0 0 0 0-2h-2a1 1 0 0 0 0 2ZM38 31h2a1 1 0 0 0 0-2h-2a1 1 0 0 0 0 2ZM22 31h2a1 1 0 0 0 0-2h-2a1 1 0 0 0 0 2ZM14 31h2a1 1 0 0 0 0-2h-2a1 1 0 0 0 0 2ZM54 31h2a1 1 0 0 0 0-2h-2a1 1 0 0 0 0 2ZM62 31h2a1 1 0 0 0 0-2h-2a1 1 0 0 0 0 2ZM69.077 30.382a1 1 0 0 0 1.626.328l.004-.003 1.414-1.414a1 1 0 1 0-1.414-1.414l-1.414 1.414a1.004 1.004 0 0 0-.216 1.09ZM76.364 25.05l1.414-1.414a1 1 0 0 0-1.414-1.414l-1.414 1.414a1 1 0 0 0 1.414 1.414ZM82.02 19.393l1.415-1.414a1 1 0 0 0-1.414-1.414l-1.414 1.414a1 1 0 0 0 1.414 1.414ZM87.678 13.737l1.414-1.415a1 1 0 1 0-1.414-1.414l-1.414 1.414a1 1 0 1 0 1.414 1.415Z" fill="#ffffff" class="fill-000000" data-darkreader-inline-fill="" style="--darkreader-inline-fill:#181a1b;"></path></svg>