<svg data-name="Layer 1" viewBox="0 0 100 100" xmlns="http://www.w3.org/2000/svg"><path d="m10.518 78.088 1.76-.949a1 1 0 0 0-.947-1.76l-1.761.948a1 1 0 0 0 .948 1.76ZM17.562 74.295l1.76-.948a1 1 0 0 0-.948-1.761l-1.76.948a1 1 0 0 0 .948 1.76ZM24.605 70.502l1.761-.948a1 1 0 1 0-.948-1.761l-1.76.948a1 1 0 0 0 .947 1.761ZM87.721 77.14l1.761.948a1 1 0 0 0 .948-1.761l-1.76-.949a1 1 0 0 0-.949 1.761ZM73.634 69.554l1.76.948a1 1 0 0 0 .949-1.76l-1.761-.95a1 1 0 1 0-.948 1.762ZM80.677 73.347l1.761.948a1 1 0 1 0 .948-1.761l-1.76-.948a1 1 0 0 0-.949 1.76ZM34 67h1a1 1 0 0 0 0-2h-1a1 1 0 0 0 0 2ZM41 67h2a1 1 0 1 0 0-2h-2a1 1 0 0 0 0 2ZM49 67h2a1 1 0 1 0 0-2h-2a1 1 0 0 0 0 2ZM57 67h2a1 1 0 1 0 0-2h-2a1 1 0 0 0 0 2ZM65 67h1a1 1 0 0 0 0-2h-1a1 1 0 0 0 0 2ZM30 25a1 1 0 0 0-1 1v2a1 1 0 0 0 2 0v-2a1 1 0 0 0-1-1ZM30 9a1 1 0 0 0-1 1v2a1 1 0 0 0 2 0v-2a1 1 0 0 0-1-1ZM30 17a1 1 0 0 0-1 1v2a1 1 0 0 0 2 0v-2a1 1 0 0 0-1-1ZM70 9a1 1 0 0 0-1 1v2a1 1 0 0 0 2 0v-2a1 1 0 0 0-1-1ZM70 17a1 1 0 0 0-1 1v2a1 1 0 0 0 2 0v-2a1 1 0 0 0-1-1ZM70 25a1 1 0 0 0-1 1v2a1 1 0 0 0 2 0v-2a1 1 0 0 0-1-1Z" fill="#ffffff" class="fill-000000" data-darkreader-inline-fill="" style="--darkreader-inline-fill:#181a1b;"></path><path d="M94.52 19.166C94.499 19.143 70.5 5.14 70.5 5.14A.993.993 0 0 0 70 5H30a.993.993 0 0 0-.5.14S5.519 19.137 5.507 19.149A.986.986 0 0 0 5 20v60a.987.987 0 0 0 .5.86l23.92 13.95a.353.353 0 0 0 .08.05 1.223 1.223 0 0 0 .24.1.823.823 0 0 0 .26.04h40a.823.823 0 0 0 .26-.04 1.223 1.223 0 0 0 .24-.1.353.353 0 0 0 .08-.05L94.5 80.86A.987.987 0 0 0 95 80V20a.984.984 0 0 0-.48-.834ZM29 92.26 7 79.43V21.74l22 12.83ZM69 93H31V35h38Zm.73-60H30.27L7.98 20 30.27 7h39.46l22.29 13ZM93 79.43 71 92.26V34.57l22-12.83Z" fill="#ffffff" class="fill-000000" data-darkreader-inline-fill="" style="--darkreader-inline-fill:#181a1b;"></path></svg>