<svg data-name="Layer 1" viewBox="0 0 100 100" xmlns="http://www.w3.org/2000/svg"><path d="M86.999 29.99c0-.012-.004-.022-.004-.033a.99.99 0 0 0-.072-.322c-.005-.014-.003-.028-.01-.041-.003-.008-.01-.013-.014-.02a.992.992 0 0 0-.198-.28c-.018-.018-.037-.032-.056-.049a.986.986 0 0 0-.09-.077l-36-24a.999.999 0 0 0-1.11 0l-36 24a.986.986 0 0 0-.09.077c-.019.017-.038.031-.056.049a.992.992 0 0 0-.198.28c-.004.007-.011.012-.015.02-.006.013-.004.027-.009.04a.987.987 0 0 0-.072.323c0 .01-.004.022-.004.033L13 30v40.006c0 .015.005.03.006.044a.999.999 0 0 0 .028.205c.007.026.02.049.029.074a1.002 1.002 0 0 0 .067.159l.007.017c.014.024.034.042.05.064a.986.986 0 0 0 .094.122 1.007 1.007 0 0 0 .082.07.972.972 0 0 0 .082.071l36 24a.978.978 0 0 0 .11.051.954.954 0 0 0 .099.047.985.985 0 0 0 .693 0 .954.954 0 0 0 .099-.047.978.978 0 0 0 .109-.051l36-24a463.02 463.02 0 0 1 .166-.143.994.994 0 0 0 .092-.12c.016-.022.037-.041.051-.066l.007-.016a.993.993 0 0 0 .064-.153c.01-.028.025-.054.032-.082a1.008 1.008 0 0 0 .02-.148A.985.985 0 0 0 87 70V30Zm-3.066-.166-15.632 6.948-3.478-6.237A.972.972 0 0 0 65 30a1 1 0 0 0-1-1h-.032L52.888 9.127ZM50.156 8.334l11.555 20.724A.988.988 0 0 0 61 30a1 1 0 0 0 1 1h.793l3.345 6H33.726l3.439-6H38a1 1 0 0 0 1-1 .987.987 0 0 0-.721-.944Zm-2.583.486L36.006 29H36a1 1 0 0 0-1 1 .972.972 0 0 0 .15.494L31.58 36.72l-15.514-6.896ZM15 31.54l15.59 6.929-5.454 9.696a.998.998 0 0 0-.639.103 1.012 1.012 0 0 0-.387 1.38l.095.17L15 66.182Zm10.417 20.204a1.01 1.01 0 0 0 1.463-1.322l-.36-.639L32 40.04l5.55 9.866-.13.225a.977.977 0 0 0 .396 1.355 1.047 1.047 0 0 0 .677.098l5.616 9.982A.98.98 0 0 0 44 62a.99.99 0 0 0 .904.98L48.29 69H15.71ZM49 92.13 17.303 71H49Zm1-24.17-2.812-5A.986.986 0 0 0 48 62a1 1 0 0 0-1-1h-.915L39.88 49.969l.413-.713a.977.977 0 0 0-.397-1.354 1.064 1.064 0 0 0-1.134.08L33.71 39h32.58l-5.052 8.982a1.06 1.06 0 0 0-1.134-.08.978.978 0 0 0-.394 1.355l.412.71L53.915 61H53a1 1 0 0 0-1 1 .986.986 0 0 0 .812.962Zm1 24.17V71h31.697ZM51.71 69l3.386-6.02A.99.99 0 0 0 56 62a.98.98 0 0 0-.109-.434l5.616-9.982a1.043 1.043 0 0 0 .678-.099.978.978 0 0 0 .394-1.355l-.13-.223 5.474-9.73 5.505 9.699-.308.545a1.003 1.003 0 0 0 1.389 1.359L84.283 69ZM85 66.212l-9.255-16.306.146-.258a1.01 1.01 0 0 0-1.13-1.476l-5.477-9.648L85 31.539Z" fill="#ffffff" class="fill-000000" data-darkreader-inline-fill="" style="--darkreader-inline-fill:#181a1b;"></path><path d="M21.893 41.585a1.016 1.016 0 0 0-1.773.994l.997 1.767a1.016 1.016 0 0 0 1.774-.994ZM29.872 55.722a1.016 1.016 0 0 0-1.773.994l.997 1.767a1.016 1.016 0 0 0 1.773-.994ZM17.904 34.517a1.016 1.016 0 0 0-1.773.994l.997 1.767a1.016 1.016 0 0 0 1.773-.994ZM30 29h-2a1 1 0 0 0 0 2h2a1 1 0 0 0 0-2ZM22 29h-2a1 1 0 0 0 0 2h2a1 1 0 0 0 0-2ZM44 31h2a1 1 0 0 0 0-2h-2a1 1 0 0 0 0 2ZM54 31h2a1 1 0 0 0 0-2h-2a1 1 0 0 0 0 2ZM70 31h2a1 1 0 0 0 0-2h-2a1 1 0 0 0 0 2ZM78 31h2a1 1 0 0 0 0-2h-2a1 1 0 0 0 0 2ZM69.828 62.812c.003-.006.002-.013.004-.02-.008.02-.02.037-.03.056.007-.013.02-.022.026-.036ZM73.768 63.106l-1.415-.654a.948.948 0 0 0-1.27.508 1.016 1.016 0 0 0 .489 1.32l1.415.653a.949.949 0 0 0 1.27-.507 1.016 1.016 0 0 0-.489-1.32ZM77.232 66.894l1.415.653a.948.948 0 0 0 1.27-.507 1.016 1.016 0 0 0-.489-1.32l-1.415-.654a.949.949 0 0 0-1.27.508 1.016 1.016 0 0 0 .489 1.32ZM63 61h-2a1 1 0 0 0 0 2h2a1 1 0 0 0 0-2ZM39 61h-2a1 1 0 0 0 0 2h2a1 1 0 0 0 0-2ZM21.987 65.067l-1.415.653a1.016 1.016 0 0 0-.489 1.32.948.948 0 0 0 1.27.508l1.416-.654a1.016 1.016 0 0 0 .488-1.32.948.948 0 0 0-1.27-.507ZM27.646 62.453l-1.415.653a1.016 1.016 0 0 0-.488 1.32.949.949 0 0 0 1.27.508l1.415-.654a1.016 1.016 0 0 0 .489-1.32.948.948 0 0 0-1.27-.507ZM46.391 36.71a1.053 1.053 0 0 0 1.405-.382l1.072-1.846a.977.977 0 0 0-.397-1.355 1.053 1.053 0 0 0-1.405.383l-1.072 1.846a.977.977 0 0 0 .397 1.355ZM33.529 58.873a1.053 1.053 0 0 0 1.405-.383l1.072-1.846a.977.977 0 0 0-.397-1.355 1.053 1.053 0 0 0-1.406.383l-1.071 1.846a.977.977 0 0 0 .397 1.355ZM44.184 40.514a1.053 1.053 0 0 0-1.405.383l-1.072 1.847a.977.977 0 0 0 .397 1.354 1.053 1.053 0 0 0 1.405-.382l1.072-1.847a.977.977 0 0 0-.397-1.355ZM65.796 55.67a1.05 1.05 0 0 0-1.403-.38.978.978 0 0 0-.394 1.355l1.072 1.846a1.05 1.05 0 0 0 1.403.382.978.978 0 0 0 .394-1.355ZM52.204 36.33a1.05 1.05 0 0 0 1.403.38.978.978 0 0 0 .394-1.355L52.93 33.51a1.05 1.05 0 0 0-1.403-.382.978.978 0 0 0-.394 1.355ZM56.493 43.717a1.05 1.05 0 0 0 1.403.38.978.978 0 0 0 .394-1.354l-1.072-1.847a1.05 1.05 0 0 0-1.403-.381.978.978 0 0 0-.394 1.355ZM50 31a1 1 0 1 0-.707-.293A1.007 1.007 0 0 0 50 31ZM32 61a1 1 0 1 0 .707.293A1.007 1.007 0 0 0 32 61ZM36.738 72.65l1.033 1.76a1.071 1.071 0 0 0 1.427.382.984.984 0 0 0 .399-1.37l-1.034-1.76a1.072 1.072 0 0 0-1.427-.382.984.984 0 0 0-.398 1.37ZM46.04 88.488a1.071 1.071 0 0 0 1.427.382.984.984 0 0 0 .398-1.37l-1.034-1.759a1.071 1.071 0 0 0-1.427-.382.984.984 0 0 0-.398 1.37ZM41.905 81.449a1.071 1.071 0 0 0 1.427.382.984.984 0 0 0 .399-1.37l-1.034-1.76a1.071 1.071 0 0 0-1.427-.381.984.984 0 0 0-.398 1.37ZM34.948 65.508a.984.984 0 0 0-.18-.2 1.065 1.065 0 0 0-1.247-.183.976.976 0 0 0-.428 1.28.892.892 0 0 0 .03.09l.514.875a1.071 1.071 0 0 0 1.427.383.984.984 0 0 0 .398-1.37ZM77.497 44.733a1.019 1.019 0 0 0 1.386-.387l.997-1.767a1.016 1.016 0 0 0-1.773-.994l-.997 1.767a1.012 1.012 0 0 0 .387 1.38ZM71.513 55.335a1.019 1.019 0 0 0-1.385.387l-.997 1.767a1.016 1.016 0 0 0 1.773.994l.997-1.767a1.012 1.012 0 0 0-.388-1.38ZM81.487 37.665a1.019 1.019 0 0 0 1.385-.387l.997-1.767a1.016 1.016 0 0 0-1.773-.994l-.997 1.767a1.012 1.012 0 0 0 .388 1.38ZM52.533 88.87a1.07 1.07 0 0 0 1.426-.382l1.033-1.76a.984.984 0 0 0-.398-1.368 1.07 1.07 0 0 0-1.426.382l-1.033 1.76a.984.984 0 0 0 .398 1.368ZM56.664 81.832a1.07 1.07 0 0 0 1.426-.382l1.032-1.76a.984.984 0 0 0-.398-1.368 1.07 1.07 0 0 0-1.426.382l-1.032 1.76a.984.984 0 0 0 .398 1.368ZM60.794 74.795a1.07 1.07 0 0 0 1.426-.383l1.033-1.76a.984.984 0 0 0-.398-1.368 1.07 1.07 0 0 0-1.426.382l-1.032 1.76a.984.984 0 0 0 .397 1.369ZM66.467 65.13a1.07 1.07 0 0 0-1.426.382l-.124.211-.39.665a.984.984 0 0 0 .399 1.369 1.07 1.07 0 0 0 1.425-.383l.393-.67.121-.205a.984.984 0 0 0-.398-1.37ZM68 61a1 1 0 1 0 .707.293A1.007 1.007 0 0 0 68 61ZM50 19a1 1 0 0 0 1-1v-2a1 1 0 0 0-2 0v2a1 1 0 0 0 1 1ZM50 27a.986.986 0 0 0 .953-.765A.961.961 0 0 0 51 26v-2a1 1 0 0 0-2 0v2a1 1 0 0 0 1 1Z" fill="#ffffff" class="fill-000000" data-darkreader-inline-fill="" style="--darkreader-inline-fill:#181a1b;"></path></svg>