<svg data-name="Layer 1" viewBox="0 0 100 100" xmlns="http://www.w3.org/2000/svg"><path d="M50 5a45 45 0 1 0 45 45A45 45 0 0 0 50 5Zm42.838 41.396c-.007-.006-.01-.014-.017-.02a13.196 13.196 0 0 0-1.824-1.16 1 1 0 1 0-.944 1.764 11.22 11.22 0 0 1 1.547.98.992.992 0 0 0 1.345-.131Q92.999 48.908 93 50a2.044 2.044 0 0 1-.637 1.346 13.4 13.4 0 0 1-5.083 2.903 73.774 73.774 0 0 1-15.508 3.435c-3.45.45-7.21.794-11.179 1.018a.982.982 0 0 0-.766-.45.996.996 0 0 0-.931.54A189.91 189.91 0 0 1 50 59c-3.014 0-5.956-.07-8.798-.201A190.093 190.093 0 0 1 41 50c-.001-12.087 1.117-23.033 2.904-30.891a38.148 38.148 0 0 1 3.085-9.178 8.544 8.544 0 0 1 1.665-2.294A2.043 2.043 0 0 1 50 7a1.889 1.889 0 0 1 1.178.494.992.992 0 0 0 1.547-.4 42.961 42.961 0 0 1 40.113 39.302ZM19.594 19.595A42.853 42.853 0 0 1 46.407 7.16a18.528 18.528 0 0 0-2.529 4.859 75.614 75.614 0 0 0-3.545 15.95A172.65 172.65 0 0 0 39 50c0 2.976.068 5.882.195 8.694a126.19 126.19 0 0 1-20.086-2.598 38.146 38.146 0 0 1-9.178-3.084 8.545 8.545 0 0 1-2.294-1.666A2.043 2.043 0 0 1 7 50a1.89 1.89 0 0 1 .494-1.178 1 1 0 0 0-.155-1.406.969.969 0 0 0-.245-.126 42.852 42.852 0 0 1 12.5-27.696ZM7.162 53.607a18.725 18.725 0 0 0 4.858 2.515 75.608 75.608 0 0 0 15.949 3.545c3.505.458 7.313.805 11.329 1.032a128.593 128.593 0 0 0 2.656 20.635 39.965 39.965 0 0 0 3.273 9.682 13.012 13.012 0 0 0 1.173 1.823A42.956 42.956 0 0 1 7.162 53.607Zm73.244 26.799a42.853 42.853 0 0 1-26.802 12.432c.006-.007.014-.01.02-.016a13.205 13.205 0 0 0 1.159-1.825 1 1 0 1 0-1.763-.944 11.23 11.23 0 0 1-.98 1.547.992.992 0 0 0 .13 1.345Q51.093 93 50 93a2.043 2.043 0 0 1-1.346-.637 13.402 13.402 0 0 1-2.903-5.083 73.77 73.77 0 0 1-3.434-15.508 153.413 153.413 0 0 1-1.008-10.967 192.677 192.677 0 0 0 17.383 0c-.007.127-.012.257-.02.385a1 1 0 1 0 1.996.12c.012-.201.022-.406.033-.608a128.583 128.583 0 0 0 20.633-2.656 39.963 39.963 0 0 0 9.682-3.273 12.809 12.809 0 0 0 1.823-1.178 42.854 42.854 0 0 1-12.433 26.81Z" fill="#ffffff" class="fill-000000" data-darkreader-inline-fill="" style="--darkreader-inline-fill:#181a1b;"></path><path d="M35.342 41.572q.98-.08 1.983-.149a1 1 0 0 0-.137-1.995q-1.014.07-2.007.15a1 1 0 0 0 .161 1.994ZM27.44 42.422q.97-.133 1.97-.255a1 1 0 0 0-.241-1.985q-1.016.123-2 .258a1 1 0 1 0 .272 1.982ZM19.637 43.786q.94-.207 1.937-.4a1 1 0 0 0-.383-1.964q-1.017.198-1.983.41a1 1 0 1 0 .43 1.954ZM12.12 45.983q.85-.339 1.826-.664a1 1 0 0 0-.632-1.898q-1.023.341-1.935.704a1 1 0 1 0 .74 1.858ZM45.226 39.058q-1.012.025-2.01.06a1 1 0 1 0 .07 1.998q.987-.034 1.989-.059a1 1 0 1 0-.049-2ZM53.27 39.027q-1-.017-2.012-.023a1 1 0 0 0-.012 2q1 .006 1.99.023a1 1 0 0 0 .033-2ZM82.764 44.357q.988.255 1.894.524a1 1 0 0 0 .569-1.918q-.943-.28-1.964-.542a1 1 0 1 0-.499 1.936ZM75.016 42.785q.998.158 1.954.329a1 1 0 0 0 .351-1.97q-.975-.173-1.991-.335a1 1 0 1 0-.314 1.976ZM67.137 41.791q1.001.097 1.976.205a1 1 0 0 0 .22-1.988q-.988-.109-2.003-.207a1 1 0 1 0-.193 1.99ZM54.017 12.12q.339.85.664 1.826a1 1 0 0 0 1.897-.632q-.34-1.023-.703-1.935a1 1 0 1 0-1.858.74ZM56.214 19.638q.206.94.4 1.936a1 1 0 1 0 1.964-.383q-.199-1.017-.41-1.983a1 1 0 1 0-1.954.43ZM57.578 27.441q.133.968.254 1.97a1 1 0 0 0 1.986-.242q-.124-1.015-.258-2a1 1 0 1 0-1.982.272ZM59.967 46.25a1 1 0 0 0 .975-1.024q-.025-1.012-.06-2.01a1 1 0 0 0-1.998.07q.034.987.059 1.99a1 1 0 0 0 1.024.974ZM58.428 35.342q.08.981.148 1.983a1 1 0 1 0 1.996-.137q-.07-1.014-.15-2.007a1 1 0 0 0-1.994.161ZM58.36 74.185a1 1 0 0 0-1.145.831q-.158.998-.33 1.954a1 1 0 0 0 1.97.352q.174-.975.335-1.992a1 1 0 0 0-.83-1.145ZM60.002 50.252a1 1 0 0 0-1.006.994q-.006 1-.023 1.99a1 1 0 1 0 2 .033q.016-.999.023-2.01a1 1 0 0 0-.994-1.007ZM59.3 66.238a1 1 0 0 0-1.092.899q-.097 1.002-.204 1.977a1 1 0 1 0 1.988.22q.109-.99.207-2.004a1 1 0 0 0-.899-1.092ZM56.86 82.046a1 1 0 0 0-1.217.718q-.255.988-.524 1.894a1 1 0 0 0 1.918.569q.28-.943.542-1.964a1 1 0 0 0-.719-1.217Z" fill="#ffffff" class="fill-000000" data-darkreader-inline-fill="" style="--darkreader-inline-fill:#181a1b;"></path></svg>