<svg data-name="Layer 1" viewBox="0 0 100 100" xmlns="http://www.w3.org/2000/svg"><path d="m94.71 49.29-44-44a1.014 1.014 0 0 0-1.42 0l-44 44a.035.035 0 0 1-.01.02.99.99 0 0 0 0 1.38.035.035 0 0 1 .01.02l44 44a1.014 1.014 0 0 0 1.42 0l44-44a1.014 1.014 0 0 0 0-1.42ZM49 91.59 9.6 52.19 49 64.73Zm0-28.95L7.86 49.55 49 8.41Zm2 28.95V64.73L90.38 52.2Zm0-28.95V8.41l41.13 41.14Z" fill="#ffffff" class="fill-000000" data-darkreader-inline-fill="" style="--darkreader-inline-fill:#181a1b;"></path><path d="m42.42 39.703 1.906-.64a1.069 1.069 0 0 0 .65-1.327.99.99 0 0 0-1.256-.686l-1.906.64a1.069 1.069 0 0 0-.65 1.327.99.99 0 0 0 1.256.686Zm-7.623 2.562 1.906-.64a1.069 1.069 0 0 0 .65-1.327.99.99 0 0 0-1.257-.686l-1.906.64a1.069 1.069 0 0 0-.65 1.327.99.99 0 0 0 1.257.686Zm-7.624 2.562 1.906-.64a1.069 1.069 0 0 0 .65-1.327.99.99 0 0 0-1.256-.687l-1.906.64a1.069 1.069 0 0 0-.65 1.327.99.99 0 0 0 1.256.687Zm-7.623 2.561 1.906-.64a1.069 1.069 0 0 0 .65-1.327.99.99 0 0 0-1.257-.686l-1.905.64a1.069 1.069 0 0 0-.65 1.327.99.99 0 0 0 1.256.686Zm-7.623 2.562 1.905-.64a1.069 1.069 0 0 0 .65-1.327.99.99 0 0 0-1.256-.686l-1.906.64a1.069 1.069 0 0 0-.65 1.327.99.99 0 0 0 1.257.686ZM58.186 37.69l-1.906-.64a.99.99 0 0 0-1.256.686 1.069 1.069 0 0 0 .65 1.327l1.906.64a.99.99 0 0 0 1.256-.686 1.069 1.069 0 0 0-.65-1.327Zm7.624 2.562-1.906-.64a.99.99 0 0 0-1.256.686 1.069 1.069 0 0 0 .65 1.326l1.905.64a.99.99 0 0 0 1.256-.685 1.069 1.069 0 0 0-.65-1.327Zm7.623 2.562-1.906-.64a.99.99 0 0 0-1.256.686 1.069 1.069 0 0 0 .65 1.326l1.906.64a.99.99 0 0 0 1.256-.686 1.069 1.069 0 0 0-.65-1.326Zm7.623 2.562-1.905-.64a.99.99 0 0 0-1.257.685 1.069 1.069 0 0 0 .65 1.327l1.906.64a.99.99 0 0 0 1.256-.686 1.069 1.069 0 0 0-.65-1.326Zm7.624 2.561-1.906-.64a.99.99 0 0 0-1.256.686 1.069 1.069 0 0 0 .65 1.327l1.905.64a.99.99 0 0 0 1.257-.686 1.069 1.069 0 0 0-.65-1.327Z" fill="#ffffff" class="fill-000000" data-darkreader-inline-fill="" style="--darkreader-inline-fill:#181a1b;"></path></svg>