<svg viewBox="0 0 64 64" xmlns="http://www.w3.org/2000/svg"><circle cx="32" cy="32" r="29" fill="none" stroke="#ffffff" stroke-miterlimit="10" stroke-width="2px" class="stroke-000000" data-darkreader-inline-stroke="" style="--darkreader-inline-stroke:#e8e6e3;"></circle><circle cx="32" cy="32" r="15" fill="none" stroke="#ffffff" stroke-miterlimit="10" stroke-width="2px" class="stroke-000000" data-darkreader-inline-stroke="" style="--darkreader-inline-stroke:#e8e6e3;"></circle><path d="M17 37a2 2 0 0 0-2 2v1a2 2 0 0 1-4 0V26a2 2 0 0 0-4 0v5a2 2 0 0 1-4 0M47 33a2 2 0 0 1 2 2v3a2 2 0 0 0 4 0v-9a2 2 0 0 1 4 0v3a2 2 0 0 0 2 2h1M15 19l1 1M18 12l1-1M30 12l1 1M38 9h1M45 17l1-1M52 21v1" fill="none" stroke="#ffffff" stroke-linecap="round" stroke-miterlimit="10" stroke-width="2px" class="stroke-000000" data-darkreader-inline-stroke="" style="--darkreader-inline-stroke:#e8e6e3;"></path></svg>