<svg viewBox="0 0 48 48" xml:space="preserve" xmlns="http://www.w3.org/2000/svg"><path d="M13 48a1 1 0 0 1-1-1V1a1 1 0 1 1 2 0v46a1 1 0 0 1-1 1zM24 48a1 1 0 0 1-1-1V1a1 1 0 1 1 2 0v46a1 1 0 0 1-1 1zM35 48a1 1 0 0 1-1-1V1a1 1 0 1 1 2 0v46a1 1 0 0 1-1 1z" fill="#ffffff" class="fill-000000" data-darkreader-inline-fill="" style="--darkreader-inline-fill:#181a1b;"></path><path d="M47 14H1a1 1 0 1 1 0-2h46a1 1 0 1 1 0 2zM47 25H1a1 1 0 1 1 0-2h46a1 1 0 1 1 0 2zM47 36H1a1 1 0 1 1 0-2h46a1 1 0 1 1 0 2z" fill="#ffffff" class="fill-000000" data-darkreader-inline-fill="" style="--darkreader-inline-fill:#181a1b;"></path></svg>